<svg width="192" height="34" viewBox="0 0 192 34" fill="none" xmlns="http://www.w3.org/2000/svg">
<path d="M24.6381 5C24.762 4.01709 24.3805 3.39037 23.6438 2.6L22.6496 1.8L20.6611 1C20.6611 1 19.0459 1.56641 18.6727 1.8C18.2392 2.07126 18.0079 2.24654 17.6784 2.6C16.9417 3.39037 16.5603 4.01709 16.6842 5C16.8255 6.12069 17.7722 6.53748 18.6727 7.4C19.379 8.07662 20.6611 9 20.6611 9C20.6611 9 21.9432 8.07662 22.6496 7.4C23.55 6.53748 24.4968 6.12069 24.6381 5Z" fill="#F3F3F3"/>
<path d="M18.6727 1.8C19.0459 1.56641 20.6611 1 20.6611 1V0L18.6727 1.8Z" fill="#F3F3F3"/>
<path d="M20.6611 1L22.6496 1.8L20.6611 0V1Z" fill="#F3F3F3"/>
<path d="M5.94768 11.162L0.895963 10.5C0.895963 10.5 -1.16318 9.98891 1.41975 18.1204C4.00268 26.2519 15.8795 30.5076 15.8795 30.5076C15.8795 30.5076 11.5851 26.9253 10.4643 25.3405C9.34345 23.7557 7.5651 21.0217 6.90605 17.7433C6.247 14.465 5.94768 11.162 5.94768 11.162Z" fill="#F3F3F3"/>
<path d="M19.7462 10.8444C19.6999 11.6875 16.5726 16.8854 16.48 18.5717C15.2523 23.677 19.6802 29.3046 18.6377 31.0372C2.82054 22.6872 9.0039 3.63787 9.0039 3.63787C9.0039 3.63787 17.1548 6.28097 19.7462 10.8444Z" fill="#F3F3F3"/>
<path d="M34.7011 11.6322L40.2992 11.2358C40.2992 11.2358 42.5893 10.833 39.463 18.8283C36.3367 26.8236 23.0838 30.4546 23.0838 30.4546C23.0838 30.4546 27.945 27.0982 29.2357 25.5725C30.5265 24.0467 32.5819 21.4063 33.4204 18.1628C34.2588 14.9193 34.7011 11.6322 34.7011 11.6322Z" fill="#F3F3F3"/>
<path d="M31.3633 20.2554C28.4971 27.4995 20.5761 31.0426 20.5761 31.0426C20.5761 31.0426 16.88 22.5208 19.7463 15.2766C22.6126 8.03249 31.3633 3.5 31.3633 3.5C31.3633 3.5 34.2296 13.0112 31.3633 20.2554Z" fill="#F3F3F3"/>
<path d="M61.4375 24C61.4375 23.6419 61.3073 23.4385 61.0469 23.3896C60.9655 23.3734 60.8841 23.3652 60.8027 23.3652H59.9727L54.3818 9.35156H53.4785L48.0098 23.3652H46.4717V24H50.8174C50.8174 23.6419 50.6872 23.4385 50.4268 23.3896C50.3454 23.3734 50.264 23.3652 50.1826 23.3652H48.9863L50.8174 18.6289H55.9199L57.751 23.3652H56.1641V24H61.4375ZM55.6514 17.9209H51.0859L53.3564 12.0127L55.6514 17.9209ZM66.9307 23.3896H65.832V18.1162C65.8809 16.6839 66.3773 15.6178 67.3213 14.918C67.7607 14.5924 68.2002 14.4297 68.6396 14.4297C69.4535 14.4297 70.015 14.8773 70.3242 15.7725C70.4544 16.1631 70.5195 16.6025 70.5195 17.0908V21.9248C70.5195 22.6735 70.3405 23.1211 69.9824 23.2676C69.7546 23.349 69.3639 23.3896 68.8105 23.3896V24H74.0596C74.0596 23.6419 73.9375 23.4466 73.6934 23.4141C73.6283 23.3978 73.5469 23.3896 73.4492 23.3896H72.3506V17.335V17.1396C72.611 15.9515 73.1888 15.1214 74.084 14.6494C74.4258 14.4867 74.7513 14.4053 75.0605 14.4053C75.8906 14.4053 76.4766 14.8366 76.8184 15.6992C76.9811 16.1061 77.0625 16.57 77.0625 17.0908V21.9248C77.0625 22.6735 76.8835 23.1211 76.5254 23.2676C76.2975 23.349 75.9069 23.3896 75.3535 23.3896V24H80.749C80.749 23.6419 80.627 23.4466 80.3828 23.4141C80.3177 23.3978 80.2363 23.3896 80.1387 23.3896H78.8936V17.335C78.8936 15.6585 78.3483 14.4867 77.2578 13.8193C76.7695 13.5264 76.2406 13.3799 75.6709 13.3799C74.4339 13.3799 73.4411 13.9577 72.6924 15.1133C72.4971 15.4062 72.3343 15.7155 72.2041 16.041C71.9111 14.7552 71.2682 13.9251 70.2754 13.5508C69.9824 13.4368 69.6813 13.3799 69.3721 13.3799C68.2002 13.3799 67.2318 13.8763 66.4668 14.8691C66.1901 15.2272 65.9704 15.626 65.8076 16.0654L65.71 13.624H62.1699V14.2344H64.001V21.9248C64.001 22.6735 63.7894 23.1211 63.3662 23.2676C63.1221 23.349 62.7233 23.3896 62.1699 23.3896V24H67.541C67.541 23.6582 67.4189 23.4629 67.1748 23.4141C67.0934 23.3978 67.012 23.3896 66.9307 23.3896ZM85.998 23.585C87.1211 23.585 87.8779 23.2432 88.2686 22.5596C88.415 22.3154 88.4883 22.0469 88.4883 21.7539C88.4883 21.0703 87.9919 20.4844 86.999 19.9961C86.7874 19.8822 86.4375 19.7194 85.9492 19.5078C84.6146 18.9544 83.7275 18.4336 83.2881 17.9453C82.8161 17.4082 82.5801 16.7816 82.5801 16.0654C82.5801 14.9424 83.1986 14.153 84.4355 13.6973C85.0052 13.4857 85.6237 13.3799 86.291 13.3799C87.3652 13.3799 88.293 13.6077 89.0742 14.0635C89.0742 13.5915 89.1882 13.3229 89.416 13.2578C89.5137 13.2415 89.6195 13.2334 89.7334 13.2334V16.2852H89.0986C89.0661 14.7878 88.236 14.0309 86.6084 14.0146C85.3877 14.0146 84.6309 14.3727 84.3379 15.0889C84.2565 15.2842 84.2158 15.4876 84.2158 15.6992C84.2158 16.3991 84.7204 16.9932 85.7295 17.4814C85.9574 17.5954 86.3154 17.75 86.8037 17.9453C88.1221 18.4824 89.001 18.9951 89.4404 19.4834C89.9124 20.0042 90.1484 20.6227 90.1484 21.3389C90.1484 22.6572 89.4486 23.5361 88.0488 23.9756C87.5117 24.1546 86.9258 24.2441 86.291 24.2441C85.1191 24.2279 84.1019 23.9349 83.2393 23.3652C83.2393 23.7884 83.1335 24.0326 82.9219 24.0977C82.8242 24.1139 82.7103 24.1221 82.5801 24.1221V20.4111H83.2637C83.2962 22.5107 84.2077 23.5687 85.998 23.585ZM91.6133 14.2344H93.3223V21.1191C93.4362 23.1536 94.3721 24.2035 96.1299 24.2686C97.6273 24.2686 98.5632 23.349 98.9375 21.5098C98.9375 21.4935 98.9375 21.4772 98.9375 21.4609L98.2783 21.3389C97.8714 22.6898 97.2773 23.4222 96.4961 23.5361C95.6172 23.5036 95.1696 22.877 95.1533 21.6562V14.2344H98.9375V13.624H95.1533V10.792L93.3223 11.3047V13.624H91.6133V14.2344ZM105.139 13.9902C106.278 13.9902 107.035 14.4704 107.409 15.4307C107.539 15.7399 107.604 16.0736 107.604 16.4316C107.604 17.2454 107.214 17.7419 106.433 17.9209C106.026 18.0023 105.448 18.0348 104.699 18.0186L102.111 17.9453C102.193 16.0736 102.803 14.8529 103.942 14.2832C104.317 14.0879 104.715 13.9902 105.139 13.9902ZM109.387 21.6562L108.776 21.4365C108.207 22.6735 107.287 23.3734 106.018 23.5361C105.855 23.5524 105.7 23.5605 105.554 23.5605C103.845 23.5605 102.771 22.5433 102.331 20.5088C102.201 19.9391 102.128 19.3125 102.111 18.6289L105.041 18.6777C107.027 18.7103 108.304 18.5231 108.874 18.1162C109.313 17.7907 109.533 17.3268 109.533 16.7246C109.533 15.6178 108.972 14.7389 107.849 14.0879C107.051 13.6159 106.132 13.3799 105.09 13.3799C103.055 13.3799 101.599 14.2262 100.72 15.9189C100.264 16.7979 100.036 17.7907 100.036 18.8975C100.036 20.9157 100.76 22.4131 102.209 23.3896C103.072 23.9593 104.056 24.2441 105.163 24.2441C106.921 24.2441 108.215 23.6094 109.045 22.3398C109.175 22.112 109.289 21.8841 109.387 21.6562ZM116.589 23.3896H114.831V18.5312C114.831 17.0501 115.287 15.862 116.198 14.9668C116.556 14.625 116.857 14.446 117.102 14.4297C117.378 14.4297 117.631 14.6331 117.858 15.04C118.119 15.4958 118.363 15.7562 118.591 15.8213C118.688 15.8538 118.786 15.8701 118.884 15.8701C119.372 15.8701 119.681 15.6341 119.812 15.1621C119.844 15.0645 119.86 14.9668 119.86 14.8691C119.86 14.1367 119.486 13.6891 118.737 13.5264C118.575 13.4938 118.42 13.4775 118.273 13.4775C117.297 13.4775 116.426 13.8926 115.661 14.7227C115.303 15.1133 115.018 15.5527 114.807 16.041L114.709 13.624H111.169V14.2344H113V21.9248C113 22.6735 112.788 23.1211 112.365 23.2676C112.121 23.349 111.722 23.3896 111.169 23.3896V24H117.199C117.199 23.6419 117.077 23.4466 116.833 23.4141C116.768 23.3978 116.687 23.3896 116.589 23.3896ZM129.284 24H132.775C132.775 23.6419 132.653 23.4466 132.409 23.4141C132.344 23.3978 132.263 23.3896 132.165 23.3896H130.944L130.896 8.13086H126.745V8.74121H129.064V14.6982C128.267 13.8193 127.193 13.3799 125.842 13.3799C124.051 13.3799 122.701 14.1774 121.789 15.7725C121.236 16.749 120.959 17.8477 120.959 19.0684C120.959 21.0866 121.594 22.5596 122.863 23.4873C123.579 23.9919 124.369 24.2441 125.231 24.2441C127.006 24.2116 128.291 23.2676 129.089 21.4121L129.284 24ZM123.034 18.7754C123.034 16.4805 123.653 14.9912 124.89 14.3076C125.28 14.096 125.712 13.9902 126.184 13.9902C127.372 13.9902 128.218 14.625 128.723 15.8945C128.999 16.5781 129.138 17.3838 129.138 18.3115C129.138 20.2646 128.649 21.6807 127.673 22.5596C127.152 23.0316 126.558 23.2676 125.891 23.2676C124.556 23.2676 123.685 22.4538 123.278 20.8262C123.116 20.224 123.034 19.5404 123.034 18.7754ZM142.907 24.2441C144.16 24.2441 144.852 23.4873 144.982 21.9736C144.999 21.876 145.007 21.7865 145.007 21.7051L144.372 21.6807C144.258 22.8688 143.941 23.471 143.42 23.4873C142.997 23.4548 142.777 23.0316 142.761 22.2178V17.0664C142.761 14.7389 141.597 13.5101 139.27 13.3799C139.123 13.3799 138.977 13.3799 138.83 13.3799C137.007 13.3799 135.786 13.8031 135.168 14.6494C134.973 14.9261 134.875 15.2028 134.875 15.4795C134.875 15.984 135.111 16.277 135.583 16.3584C135.664 16.3747 135.746 16.3828 135.827 16.3828C136.201 16.3828 136.478 16.1468 136.657 15.6748C136.885 15.0726 137.04 14.7145 137.121 14.6006C137.43 14.1937 137.91 13.9902 138.562 13.9902C140.091 14.0879 140.881 14.9261 140.93 16.5049V18.043C137.105 18.043 134.916 18.8405 134.362 20.4355C134.265 20.7448 134.216 21.0785 134.216 21.4365C134.216 22.6735 134.761 23.5199 135.852 23.9756C136.291 24.1546 136.755 24.2441 137.243 24.2441C138.431 24.2441 139.432 23.8372 140.246 23.0234C140.539 22.7142 140.759 22.3887 140.905 22.0469C141.101 23.4954 141.768 24.2279 142.907 24.2441ZM138.049 23.2676C137.056 23.2676 136.446 22.7712 136.218 21.7783C136.169 21.5505 136.145 21.2982 136.145 21.0215C136.145 19.931 136.771 19.2393 138.024 18.9463C138.692 18.7998 139.66 18.7184 140.93 18.7021V20.6553C140.686 21.7783 140.091 22.5677 139.147 23.0234C138.773 23.1862 138.407 23.2676 138.049 23.2676ZM150.622 23.3896H149.523V18.1162C149.572 16.6839 150.069 15.6178 151.013 14.918C151.452 14.5924 151.892 14.4297 152.331 14.4297C153.145 14.4297 153.706 14.8773 154.016 15.7725C154.146 16.1631 154.211 16.6025 154.211 17.0908V21.9248C154.211 22.6735 154.032 23.1211 153.674 23.2676C153.446 23.349 153.055 23.3896 152.502 23.3896V24H157.751C157.751 23.6419 157.629 23.4466 157.385 23.4141C157.32 23.3978 157.238 23.3896 157.141 23.3896H156.042V17.335V17.1396C156.302 15.9515 156.88 15.1214 157.775 14.6494C158.117 14.4867 158.443 14.4053 158.752 14.4053C159.582 14.4053 160.168 14.8366 160.51 15.6992C160.673 16.1061 160.754 16.57 160.754 17.0908V21.9248C160.754 22.6735 160.575 23.1211 160.217 23.2676C159.989 23.349 159.598 23.3896 159.045 23.3896V24H164.44C164.44 23.6419 164.318 23.4466 164.074 23.4141C164.009 23.3978 163.928 23.3896 163.83 23.3896H162.585V17.335C162.585 15.6585 162.04 14.4867 160.949 13.8193C160.461 13.5264 159.932 13.3799 159.362 13.3799C158.125 13.3799 157.132 13.9577 156.384 15.1133C156.188 15.4062 156.026 15.7155 155.896 16.041C155.603 14.7552 154.96 13.9251 153.967 13.5508C153.674 13.4368 153.373 13.3799 153.063 13.3799C151.892 13.3799 150.923 13.8763 150.158 14.8691C149.882 15.2272 149.662 15.626 149.499 16.0654L149.401 13.624H145.861V14.2344H147.692V21.9248C147.692 22.6735 147.481 23.1211 147.058 23.2676C146.813 23.349 146.415 23.3896 145.861 23.3896V24H151.232C151.232 23.6582 151.11 23.4629 150.866 23.4141C150.785 23.3978 150.703 23.3896 150.622 23.3896ZM184.118 9.35156H180.212L174.938 21.29L169.274 9.35156H165.783V9.98633H167.736V23.3652H165.783V24H170.666C170.666 23.6419 170.536 23.4385 170.275 23.3896C170.194 23.3734 170.113 23.3652 170.031 23.3652H168.713V12.8672L174.06 24.1221H174.572L180.212 11.5488V23.3652H178.259V24H184.118C184.118 23.6419 183.988 23.4385 183.728 23.3896C183.646 23.3734 183.565 23.3652 183.483 23.3652H182.165V9.98633H184.118V9.35156Z" fill="#F3F3F3"/>
</svg>
