<svg width="279" height="112" viewBox="0 0 279 112" fill="none" xmlns="http://www.w3.org/2000/svg">
<path d="M30.5527 111C30.5527 110.284 30.2923 109.877 29.7715 109.779C29.6087 109.747 29.446 109.73 29.2832 109.73H27.623L16.4414 81.7031H14.6348L3.69727 109.73H0.621094V111H9.3125C9.3125 110.284 9.05208 109.877 8.53125 109.779C8.36849 109.747 8.20573 109.73 8.04297 109.73H5.65039L9.3125 100.258H19.5176L23.1797 109.73H20.0059V111H30.5527ZM18.9805 98.8418H9.84961L14.3906 87.0254L18.9805 98.8418ZM41.5391 109.779H39.3418V99.2324C39.4395 96.3678 40.4323 94.2357 42.3203 92.8359C43.1992 92.1849 44.0781 91.8594 44.957 91.8594C46.5846 91.8594 47.7077 92.7546 48.3262 94.5449C48.5866 95.3262 48.7168 96.2051 48.7168 97.1816V106.85C48.7168 108.347 48.3587 109.242 47.6426 109.535C47.1868 109.698 46.4056 109.779 45.2988 109.779V111H55.7969C55.7969 110.284 55.5527 109.893 55.0645 109.828C54.9342 109.796 54.7715 109.779 54.5762 109.779H52.3789V97.6699V97.2793C52.8997 94.903 54.0553 93.2428 55.8457 92.2988C56.5293 91.9733 57.1803 91.8105 57.7988 91.8105C59.459 91.8105 60.6309 92.6732 61.3145 94.3984C61.64 95.2122 61.8027 96.14 61.8027 97.1816V106.85C61.8027 108.347 61.4447 109.242 60.7285 109.535C60.2728 109.698 59.4915 109.779 58.3848 109.779V111H69.1758C69.1758 110.284 68.9316 109.893 68.4434 109.828C68.3132 109.796 68.1504 109.779 67.9551 109.779H65.4648V97.6699C65.4648 94.3171 64.3743 91.9733 62.1934 90.6387C61.2168 90.0527 60.1589 89.7598 59.0195 89.7598C56.5456 89.7598 54.5599 90.9154 53.0625 93.2266C52.6719 93.8125 52.3464 94.431 52.0859 95.082C51.5 92.5104 50.2142 90.8503 48.2285 90.1016C47.6426 89.8737 47.0404 89.7598 46.4219 89.7598C44.0781 89.7598 42.1413 90.7526 40.6113 92.7383C40.0579 93.4544 39.6185 94.252 39.293 95.1309L39.0977 90.248H32.0176V91.4688H35.6797V106.85C35.6797 108.347 35.2565 109.242 34.4102 109.535C33.9219 109.698 33.1243 109.779 32.0176 109.779V111H42.7598C42.7598 110.316 42.5156 109.926 42.0273 109.828C41.8646 109.796 41.7018 109.779 41.5391 109.779ZM79.6738 110.17C81.9199 110.17 83.4336 109.486 84.2148 108.119C84.5078 107.631 84.6543 107.094 84.6543 106.508C84.6543 105.141 83.6615 103.969 81.6758 102.992C81.2526 102.764 80.5527 102.439 79.5762 102.016C76.9069 100.909 75.1328 99.8672 74.2539 98.8906C73.3099 97.8164 72.8379 96.5632 72.8379 95.1309C72.8379 92.8848 74.0749 91.306 76.5488 90.3945C77.6882 89.9714 78.9251 89.7598 80.2598 89.7598C82.4082 89.7598 84.2637 90.2155 85.8262 91.127C85.8262 90.1829 86.054 89.6458 86.5098 89.5156C86.7051 89.4831 86.9167 89.4668 87.1445 89.4668V95.5703H85.875C85.8099 92.5755 84.1497 91.0618 80.8945 91.0293C78.4531 91.0293 76.9395 91.7454 76.3535 93.1777C76.1908 93.5684 76.1094 93.9753 76.1094 94.3984C76.1094 95.7982 77.1185 96.9863 79.1367 97.9629C79.5924 98.1908 80.3086 98.5 81.2852 98.8906C83.9219 99.9648 85.6797 100.99 86.5586 101.967C87.5026 103.008 87.9746 104.245 87.9746 105.678C87.9746 108.314 86.5749 110.072 83.7754 110.951C82.7012 111.309 81.5293 111.488 80.2598 111.488C77.916 111.456 75.8815 110.87 74.1562 109.73C74.1562 110.577 73.9447 111.065 73.5215 111.195C73.3262 111.228 73.0983 111.244 72.8379 111.244V103.822H74.2051C74.2702 108.021 76.0931 110.137 79.6738 110.17ZM90.9043 91.4688H94.3223V105.238C94.5501 109.307 96.4219 111.407 99.9375 111.537C102.932 111.537 104.804 109.698 105.553 106.02C105.553 105.987 105.553 105.954 105.553 105.922L104.234 105.678C103.421 108.38 102.232 109.844 100.67 110.072C98.9121 110.007 98.0169 108.754 97.9844 106.312V91.4688H105.553V90.248H97.9844V84.584L94.3223 85.6094V90.248H90.9043V91.4688ZM117.955 90.9805C120.234 90.9805 121.747 91.9408 122.496 93.8613C122.757 94.4798 122.887 95.1471 122.887 95.8633C122.887 97.4909 122.105 98.4837 120.543 98.8418C119.729 99.0046 118.574 99.0697 117.076 99.0371L111.9 98.8906C112.063 95.1471 113.284 92.7057 115.562 91.5664C116.311 91.1758 117.109 90.9805 117.955 90.9805ZM126.451 106.312L125.23 105.873C124.091 108.347 122.252 109.747 119.713 110.072C119.387 110.105 119.078 110.121 118.785 110.121C115.367 110.121 113.219 108.087 112.34 104.018C112.079 102.878 111.933 101.625 111.9 100.258L117.76 100.355C121.731 100.421 124.286 100.046 125.426 99.2324C126.305 98.5814 126.744 97.6536 126.744 96.4492C126.744 94.2357 125.621 92.4779 123.375 91.1758C121.78 90.2318 119.941 89.7598 117.857 89.7598C113.788 89.7598 110.875 91.4525 109.117 94.8379C108.206 96.5957 107.75 98.5814 107.75 100.795C107.75 104.831 109.199 107.826 112.096 109.779C113.821 110.919 115.79 111.488 118.004 111.488C121.52 111.488 124.107 110.219 125.768 107.68C126.028 107.224 126.256 106.768 126.451 106.312ZM140.855 109.779H137.34V100.062C137.34 97.1003 138.251 94.724 140.074 92.9336C140.79 92.25 141.393 91.8919 141.881 91.8594C142.434 91.8594 142.939 92.2663 143.395 93.0801C143.915 93.9915 144.404 94.5124 144.859 94.6426C145.055 94.7077 145.25 94.7402 145.445 94.7402C146.422 94.7402 147.04 94.2682 147.301 93.3242C147.366 93.1289 147.398 92.9336 147.398 92.7383C147.398 91.2734 146.65 90.3783 145.152 90.0527C144.827 89.9876 144.518 89.9551 144.225 89.9551C142.271 89.9551 140.53 90.7852 139 92.4453C138.284 93.2266 137.714 94.1055 137.291 95.082L137.096 90.248H130.016V91.4688H133.678V106.85C133.678 108.347 133.255 109.242 132.408 109.535C131.92 109.698 131.122 109.779 130.016 109.779V111H142.076C142.076 110.284 141.832 109.893 141.344 109.828C141.214 109.796 141.051 109.779 140.855 109.779ZM166.246 111H173.229C173.229 110.284 172.984 109.893 172.496 109.828C172.366 109.796 172.203 109.779 172.008 109.779H169.566L169.469 79.2617H161.168V80.4824H165.807V92.3965C164.212 90.6387 162.063 89.7598 159.361 89.7598C155.781 89.7598 153.079 91.3548 151.256 94.5449C150.149 96.498 149.596 98.6953 149.596 101.137C149.596 105.173 150.865 108.119 153.404 109.975C154.837 110.984 156.415 111.488 158.141 111.488C161.689 111.423 164.26 109.535 165.855 105.824L166.246 111ZM153.746 100.551C153.746 95.9609 154.983 92.9824 157.457 91.6152C158.238 91.1921 159.101 90.9805 160.045 90.9805C162.421 90.9805 164.114 92.25 165.123 94.7891C165.676 96.1562 165.953 97.7676 165.953 99.623C165.953 103.529 164.977 106.361 163.023 108.119C161.982 109.063 160.794 109.535 159.459 109.535C156.79 109.535 155.048 107.908 154.234 104.652C153.909 103.448 153.746 102.081 153.746 100.551ZM193.492 111.488C195.999 111.488 197.382 109.975 197.643 106.947C197.675 106.752 197.691 106.573 197.691 106.41L196.422 106.361C196.194 108.738 195.559 109.942 194.518 109.975C193.671 109.91 193.232 109.063 193.199 107.436V97.1328C193.199 92.4779 190.872 90.0202 186.217 89.7598C185.924 89.7598 185.631 89.7598 185.338 89.7598C181.692 89.7598 179.251 90.6061 178.014 92.2988C177.623 92.8522 177.428 93.4056 177.428 93.959C177.428 94.9681 177.9 95.554 178.844 95.7168C179.007 95.7493 179.169 95.7656 179.332 95.7656C180.081 95.7656 180.634 95.2936 180.992 94.3496C181.448 93.1452 181.757 92.429 181.92 92.2012C182.538 91.3874 183.499 90.9805 184.801 90.9805C187.861 91.1758 189.439 92.8522 189.537 96.0098V99.0859C181.887 99.0859 177.509 100.681 176.402 103.871C176.207 104.49 176.109 105.157 176.109 105.873C176.109 108.347 177.2 110.04 179.381 110.951C180.26 111.309 181.188 111.488 182.164 111.488C184.54 111.488 186.542 110.674 188.17 109.047C188.756 108.428 189.195 107.777 189.488 107.094C189.879 109.991 191.214 111.456 193.492 111.488ZM183.775 109.535C181.79 109.535 180.569 108.542 180.113 106.557C180.016 106.101 179.967 105.596 179.967 105.043C179.967 102.862 181.22 101.479 183.727 100.893C185.061 100.6 186.998 100.437 189.537 100.404V104.311C189.049 106.557 187.861 108.135 185.973 109.047C185.224 109.372 184.492 109.535 183.775 109.535ZM208.922 109.779H206.725V99.2324C206.822 96.3678 207.815 94.2357 209.703 92.8359C210.582 92.1849 211.461 91.8594 212.34 91.8594C213.967 91.8594 215.09 92.7546 215.709 94.5449C215.969 95.3262 216.1 96.2051 216.1 97.1816V106.85C216.1 108.347 215.742 109.242 215.025 109.535C214.57 109.698 213.788 109.779 212.682 109.779V111H223.18C223.18 110.284 222.936 109.893 222.447 109.828C222.317 109.796 222.154 109.779 221.959 109.779H219.762V97.6699V97.2793C220.283 94.903 221.438 93.2428 223.229 92.2988C223.912 91.9733 224.563 91.8105 225.182 91.8105C226.842 91.8105 228.014 92.6732 228.697 94.3984C229.023 95.2122 229.186 96.14 229.186 97.1816V106.85C229.186 108.347 228.827 109.242 228.111 109.535C227.656 109.698 226.874 109.779 225.768 109.779V111H236.559C236.559 110.284 236.314 109.893 235.826 109.828C235.696 109.796 235.533 109.779 235.338 109.779H232.848V97.6699C232.848 94.3171 231.757 91.9733 229.576 90.6387C228.6 90.0527 227.542 89.7598 226.402 89.7598C223.928 89.7598 221.943 90.9154 220.445 93.2266C220.055 93.8125 219.729 94.431 219.469 95.082C218.883 92.5104 217.597 90.8503 215.611 90.1016C215.025 89.8737 214.423 89.7598 213.805 89.7598C211.461 89.7598 209.524 90.7526 207.994 92.7383C207.441 93.4544 207.001 94.252 206.676 95.1309L206.48 90.248H199.4V91.4688H203.062V106.85C203.062 108.347 202.639 109.242 201.793 109.535C201.305 109.698 200.507 109.779 199.4 109.779V111H210.143C210.143 110.316 209.898 109.926 209.41 109.828C209.247 109.796 209.085 109.779 208.922 109.779ZM275.914 81.7031H268.102L257.555 105.58L246.227 81.7031H239.244V82.9727H243.15V109.73H239.244V111H249.01C249.01 110.284 248.749 109.877 248.229 109.779C248.066 109.747 247.903 109.73 247.74 109.73H245.104V88.7344L255.797 111.244H256.822L268.102 86.0977V109.73H264.195V111H275.914C275.914 110.284 275.654 109.877 275.133 109.779C274.97 109.747 274.807 109.73 274.645 109.73H272.008V82.9727H275.914V81.7031Z" fill="black"/>
<path d="M103.388 27.6226L88.4226 25.7861C88.4226 25.7861 82.8533 24.3742 89.863 46.7433C96.8728 69.1124 132.367 79.6031 132.367 79.6031C132.367 79.6031 118.035 70.8615 115 66.5C111.964 62.1385 107.792 54.741 106 45.7238C104.207 36.7066 103.388 27.6226 103.388 27.6226Z" fill="black"/>
<path d="M137.307 31.0345C137.212 33.0699 129.354 46.1097 129.164 50.1805C126.165 62.6689 133.721 75.2725 135.033 79.78C94.3241 62.442 109.617 15.5671 109.617 15.5671C109.617 15.5671 130.548 20.5107 137.307 31.0345Z" fill="black"/>
<path d="M169 27.5L183.5 26.5C183.5 26.5 188.661 25.2135 181.333 47.5902C174.006 69.9668 138.833 80.0901 138.833 80.0901C138.833 80.0901 154.182 70.06 157.091 66.53C160 63 166 56 167.782 46.198C169.564 36.3961 169 27.5 169 27.5Z" fill="black"/>
<path d="M163.382 54.6774C156.605 71.8055 136.712 79.7216 136.712 79.7216C136.712 79.7216 126.71 59.073 133.487 41.945C140.264 24.8169 162.197 14.5923 162.197 14.5923C162.197 14.5923 170.159 37.5494 163.382 54.6774Z" fill="black"/>
<path d="M149.426 15.36C149.845 12.4491 148.712 10.5727 146.507 8.19501L143.518 5.77733L137.507 3.31561C137.507 3.31561 132.197 4.30857 131.185 5.17139C129.426 6.67139 129.387 6.89663 128.37 7.93078C126.096 10.2432 124.909 12.0858 125.243 15.0077C125.624 18.3391 128.485 19.6176 131.185 22.2167C133.303 24.2555 137.162 27.052 137.162 27.052C137.162 27.052 141.1 24.3691 143.276 22.3928C146.051 19.8736 148.948 18.6789 149.426 15.36Z" fill="black"/>
<path d="M131.185 5.17139C132.197 4.30857 137.507 3.31561 137.507 3.31561L137.161 0.171387L131.185 5.17139Z" fill="black"/>
<path d="M137.507 3.31561L143.518 5.77733L137.161 0.171387L137.507 3.31561Z" fill="black"/>
</svg>
